# xmcd CD database file
#
# Track frame offsets:
#	150
#	18217
#	43746
#	62087
#	97524
#	118437
#	138632
#	157184
#	173375
#	190103
#	213738
#	231939
#
# Disc length: 3276 seconds
#
# Revision: 2
# Processed by: cddbd v1.5.1PL0 Copyright (c) Steve Scherf et al.
# Submitted via: CDex 1.51
#
DISCID=a40cca0c
DTITLE=Ben Harper - Burn to Shine
DYEAR=1999
DGENRE=Blues
TTITLE0=Alone
TTITLE1=The Woman in You
TTITLE2=Less
TTITLE3=Two Hands of a Prayer
TTITLE4=Please Bleed
TTITLE5=Suzie Blue
TTITLE6=Steal my Kisses
TTITLE7=Burn to Shine
TTITLE8=Show me a Little Shame
TTITLE9=Forgiven
TTITLE10=Beloved One
TTITLE11=In the Lord's Arms
EXTD=YEAR: 1999
EXTT0=
EXTT1=
EXTT2=
EXTT3=
EXTT4=
EXTT5=
EXTT6=
EXTT7=
EXTT8=
EXTT9=
EXTT10=
EXTT11=
PLAYORDER=
